<?xml version="1.0" encoding="UTF-8"?>
<svg id="_레이어_1" data-name="레이어_1" xmlns="http://www.w3.org/2000/svg" version="1.1" viewBox="0 0 1920 600">
  <!-- Generator: Adobe Illustrator 30.0.0, SVG Export Plug-In . SVG Version: 2.1.1 Build 123)  -->
  <defs>
    <style>
      .st0 {
        fill: #e83518;
      }
    </style>
  </defs>
  <path class="st0" d="M583.05,462.03c7.24-11.2,18.21-26.31,33.26-25.99,2.94.06,3.73,3.61,7.04,4.11,7.33,1.11,15.35-11.79,21.12-16.89,11.69-10.34,29.65-20.63,39.56-30.65,6.6-6.67,11.28-16.15,18.95-23.47,16.08-15.37,64.7-40.14,69.54-59.18,1.97-7.75.05-17.49.71-25.62.79-9.68,4.54-23.54,8.49-32.46,1.74-3.92,17.02-23.93,9.74-25.34-9.93,6.13-18.78,13.44-28.97,19.27-43.98,25.16-98.39,41.05-147.25,53.86,20.43-60.64,84.3-94.03,145.55-97.98,15.22-.98,35.39,2.26,49.21.66,6.2-.72,19.24-9.25,27.86-11.35,39.88-9.72,57.11,7.87,91.15,10.65,24.05,1.96,73.88,4.14,95.77-2.18,32.41-9.36,50.14-34.85,75.4-54.78,28.78-22.71,63.47-44.24,101.36-44.19l10.49-29c3.08-2.83,10.24,14.98,12.43,16.08l5.13-13.15c2.89-2.25,5.19,22.25,6.64,24.79,21.5,25.91,44.49,51.94,63.55,78.33,13.44,18.61,7.43,48.06-19.04,40.98-15.38-4.11-20.28-14.88-30.79-20.41-5.35-2.82-15.38-3.67-22.36-6.89-6.14-2.84-11.44-6.82-16.3-11.46-4.76,12.26-11.18,23.05-19.17,33.46-20.92,27.27-48.26,36.61-45.89,76.93.19,3.2,2.29,16.23,4.34,17.59,8.7,1.13,16.49,4.2,24.41,7.77,6.14,2.77,15.78,10.15,20.59,11.59,7.19,2.15,16.88,1.57,25.23,4.03,33.45,9.83,72.03,61.04,102.41,80.43,29.5,23.3-24.93,25.31-28.97,11.42-1.31-4.51.49-10.2-.49-14.87-11.01-2.09-18.96-8.81-26.1-17.05-3.64-4.21-7.48-12.19-10.99-15.34-4.87-4.36-33.27-16.64-40.7-19.27-18.88-6.67-43.21-12.16-62.44-5.56l19.26,31.18c12.36,19.17,19.87,43.84,32.79,62.29,16.17,23.09,39.37,38.83,59.13,57.89,4.04,3.9,14.51,12.97,12.95,18.72-.68,1.72-1.96,3.14-3.76,3.68-3.17.94-30.93.98-34.77.26-10.5-1.98-8.07-16.05-5.16-23.36-23.35,5.44-22.07-13.94-30.05-26.27-6.8-10.5-23.89-26.48-32.81-37.4-19.94-24.42-39.57-52.72-60.04-75.99-17.49-19.89-29.09-8.44-52.1-5.36-43.74,5.85-92.28,2.22-133.61-13.71-15.11-5.83-30.13-16.53-47.51-15.38-11.83.78-11.99,12.29-18,21.58-25.13,38.83-76.96,41.08-91.73,80.88-6.78,18.28-2.73,38.37-3.49,57.56,6.78,4.03,13.75,7.32,20.16,12.02,5.98,4.38,27.81,21.3,16.09,27.55-8.48,4.53-16.47,2.39-24.25-1.84-13.12-7.13-6.2-9.07-9.93-14.94-.94-1.48-14.98-4.81-18.74-8.64-5.08-5.16-1.1-11.08-1.01-16.83.36-22.76-4.47-75.15,10.16-92.23,6.05-7.07,21.87-10.7,23.42-22.63-8.05-3.4-14.99.08-22.46,3.11-27.93,11.34-79.48,46.57-98.12,70.09-6.24,7.88-4.16,12.54-16.92,16.71-7.5,2.45-11.29.35-16.49,1.03-4.42.57-15.19,7.95-22.66,9.55-6.9,1.47-14.83,2.35-20.81-2.51v-5.85Z"/>
</svg>